<svg width="291" height="89" xmlns="http://www.w3.org/2000/svg" xmlns:xlink="http://www.w3.org/1999/xlink" xml:space="preserve" overflow="hidden"><defs><clipPath id="clip0"><rect x="65" y="252" width="291" height="89"/></clipPath></defs><g clip-path="url(#clip0)" transform="translate(-65 -252)"><path d="M61.0489 160.906 28.3812 160.906 34.3031 150.651 52.1676 150.651 56.6082 158.342C57.5569 159.983 59.2796 160.906 61.0489 160.906Z" fill="#FF4D4D" transform="matrix(1 0 0 1.00329 65 150.522)"/><path d="M34.306 150.651 28.3841 160.906 25.4188 160.906C22.5932 160.906 20.2914 158.61 20.2914 155.778 20.2914 154.896 20.5155 154.061 20.9113 153.331L20.9724 153.223C20.9782 153.217 20.9782 153.217 20.9782 153.214L21.0335 153.121C21.9356 151.64 23.5623 150.651 25.4188 150.651L34.306 150.651Z" fill="#0F95D8" transform="matrix(1 0 0 1.00329 65 150.522)"/><path d="M25.4188 160.906 28.3812 160.906 23.9144 168.643C23.2276 169.828 22.1247 170.677 20.8007 171.032 20.3554 171.149 19.9073 171.207 19.4621 171.207 18.5745 171.207 17.6986 170.977 16.91 170.52 14.4598 169.106 13.6188 165.963 15.0331 163.516L20.9083 153.334C20.5126 154.061 20.2885 154.896 20.2885 155.781 20.2914 158.61 22.5932 160.906 25.4188 160.906Z" fill="#1DC8FC" transform="matrix(1 0 0 1.00329 65 150.522)"/><path d="M43.231 135.181 41.7323 137.777C41.7323 137.777 41.7323 137.783 41.7265 137.788L34.3031 150.654 25.4188 150.654C23.5623 150.654 21.9385 151.643 21.0335 153.124L38.7554 122.43C37.9086 123.951 37.862 125.869 38.7903 127.484L43.231 135.181Z" fill="#1DC8FC" transform="matrix(1 0 0 1.00329 65 150.522)"/><path d="M47.6774 127.484 43.231 135.181 38.7903 127.484C37.862 125.869 37.9086 123.951 38.7554 122.43 38.8223 122.301 38.898 122.179 38.9824 122.06 39.0493 121.964 39.1162 121.865 39.1861 121.778 39.2588 121.685 39.3286 121.597 39.4072 121.51 39.4858 121.423 39.5615 121.341 39.6429 121.263 39.7244 121.181 39.8059 121.108 39.8932 121.033 39.9747 120.96 40.062 120.89 40.1551 120.823 40.3355 120.689 40.5188 120.567 40.7138 120.459 40.9088 120.346 41.1038 120.25 41.3074 120.171 41.5082 120.09 41.7061 120.023 41.9127 119.968 41.9215 119.962 41.9331 119.956 41.9477 119.956 42.1572 119.904 42.3667 119.863 42.582 119.834 43.0127 119.779 43.455 119.779 43.8944 119.834 44.1098 119.866 44.3251 119.907 44.5405 119.962 44.5463 119.962 44.5521 119.968 44.555 119.968 44.6627 120 44.7704 120.029 44.878 120.064 44.9653 120.09 45.0526 120.125 45.1399 120.16 45.4484 120.282 45.7394 120.43 46.0129 120.611 46.0857 120.657 46.1555 120.704 46.2224 120.753 46.2632 120.78 46.3097 120.814 46.3505 120.846L47.078 121.527C47.1333 121.589 47.1856 121.65 47.238 121.717L47.3923 121.92C47.4446 121.993 47.4883 122.06 47.5349 122.13L47.6687 122.351 47.7415 122.479C47.9306 122.828 48.079 123.198 48.1867 123.588 48.5446 124.915 48.3584 126.3 47.6774 127.484Z" fill="#0F95D8" transform="matrix(1 0 0 1.00329 65 150.522)"/><path d="M66.1763 155.743 66.1763 155.778C66.1763 155.886 66.1705 155.999 66.1647 156.107 66.1589 156.194 66.153 156.276 66.1443 156.357 66.1327 156.424 66.1239 156.491 66.1123 156.558 66.0861 156.741 66.0454 156.928 65.9988 157.108 65.993 157.134 65.9843 157.16 65.9726 157.184 65.9522 157.265 65.9261 157.347 65.8969 157.431 65.8562 157.565 65.8038 157.699 65.7485 157.827 65.6933 157.966 65.6263 158.094 65.5536 158.225 65.5187 158.298 65.4779 158.368 65.4314 158.435 65.3906 158.508 65.3441 158.578 65.2917 158.65 65.2509 158.717 65.2044 158.784 65.1549 158.845 65.1229 158.892 65.088 158.938 65.0531 158.985 65.0385 159.005 65.021 159.02 65.0065 159.04 64.9658 159.087 64.9308 159.133 64.8872 159.174 64.8784 159.189 64.861 159.209 64.8406 159.226 64.7999 159.273 64.7533 159.32 64.7126 159.366 64.6398 159.439 64.57 159.509 64.4914 159.576 64.4565 159.611 64.4158 159.643 64.3779 159.678 64.3721 159.683 64.3634 159.689 64.3576 159.692 64.2761 159.759 64.1975 159.826 64.1102 159.887 63.9502 160.009 63.7814 160.117 63.6068 160.222 63.4176 160.329 63.2285 160.425 63.0335 160.504 62.9724 160.53 62.9113 160.556 62.8502 160.577 62.7774 160.609 62.7105 160.632 62.6407 160.655 62.5796 160.681 62.5184 160.696 62.4573 160.711 62.3497 160.743 62.242 160.772 62.1285 160.798 62.0266 160.818 61.9277 160.833 61.8259 160.85 61.7589 160.862 61.6862 160.871 61.6222 160.879 61.5349 160.891 61.4534 160.894 61.3719 160.9 61.2759 160.906 61.1828 160.911 61.0838 160.911L61.0634 160.911C61.0576 160.911 61.0576 160.911 61.0547 160.911L61.0489 160.911C59.2796 160.911 57.5569 159.989 56.6082 158.348L52.1676 150.657 61.0489 150.657C62.9055 150.657 64.5293 151.646 65.4343 153.127L65.4896 153.22C65.5012 153.235 65.5041 153.246 65.5099 153.261 65.5623 153.348 65.6089 153.43 65.6496 153.523 65.7369 153.697 65.8126 153.878 65.8795 154.061 65.8999 154.117 65.9202 154.175 65.9348 154.23 65.9668 154.323 65.9901 154.41 66.0104 154.501 66.0366 154.597 66.057 154.69 66.0774 154.789 66.0919 154.861 66.1036 154.931 66.1123 155.004 66.1268 155.077 66.1327 155.147 66.1443 155.219 66.1559 155.301 66.1589 155.382 66.1647 155.467 66.1734 155.557 66.1763 155.644 66.1763 155.743Z" fill="#E53333" transform="matrix(1 0 0 1.00329 65 150.522)"/><path d="M65.4343 153.124C64.5322 151.643 62.9055 150.654 61.0489 150.654L52.1676 150.654 43.231 135.184 47.6774 127.487C48.3584 126.303 48.5446 124.918 48.1896 123.596 48.0819 123.206 47.9335 122.837 47.7444 122.488L65.4343 153.124Z" fill="#7B1CF1" transform="matrix(1 0 0 1.00329 65 150.522)"/><path d="M108.357 144.182C108.357 150.095 104.134 154.547 98.5268 154.547 95.5324 154.547 92.96 153.281 91.1936 151.169L91.1936 153.319C91.1936 154.009 90.6174 154.547 89.9656 154.547 89.2759 154.547 88.7375 154.009 88.7375 153.319L88.7375 128.669C88.7375 127.979 89.2759 127.441 89.9656 127.441 90.6174 127.441 91.1936 127.979 91.1936 128.669L91.1936 137.154C92.96 135.082 95.5324 133.813 98.5268 133.813 104.134 133.816 108.357 138.269 108.357 144.182ZM105.901 144.182C105.901 139.651 102.752 136.235 98.5297 136.235 94.3451 136.235 91.1965 139.651 91.1965 144.182 91.1965 148.675 94.3451 152.091 98.5297 152.091 102.752 152.091 105.901 148.675 105.901 144.182Z" fill="#343434" transform="matrix(1 0 0 1.00329 65 150.522)"/><path d="M121.525 135.007C121.525 135.699 120.986 136.235 120.297 136.235 116.918 136.235 114.346 138.999 114.346 142.645L114.346 142.837C114.346 142.875 114.346 142.913 114.346 142.951L114.346 153.319C114.346 154.009 113.807 154.547 113.118 154.547 112.466 154.547 111.927 154.009 111.927 153.319L111.927 135.004C111.927 134.352 112.466 133.813 113.118 133.813 113.807 133.813 114.346 134.352 114.346 135.004L114.346 136.272C115.844 134.736 117.916 133.816 120.297 133.816 120.986 133.816 121.525 134.355 121.525 135.007Z" fill="#343434" transform="matrix(1 0 0 1.00329 65 150.522)"/><path d="M142.028 135.007 142.028 153.322C142.028 154.012 141.49 154.55 140.8 154.55 140.108 154.55 139.572 154.012 139.572 153.322L139.572 151.172C137.806 153.284 135.196 154.55 132.201 154.55 126.634 154.55 122.412 150.098 122.412 144.185 122.412 138.272 126.634 133.819 132.201 133.819 135.196 133.819 137.806 135.085 139.572 137.16L139.572 135.009C139.572 134.358 140.111 133.819 140.8 133.819 141.49 133.816 142.028 134.355 142.028 135.007ZM139.569 144.182C139.569 139.651 136.421 136.235 132.198 136.235 128.014 136.235 124.865 139.651 124.865 144.182 124.865 148.675 128.014 152.091 132.198 152.091 136.421 152.091 139.569 148.675 139.569 144.182Z" fill="#343434" transform="matrix(1 0 0 1.00329 65 150.522)"/><path d="M162.721 142.648 162.721 153.322C162.721 154.012 162.183 154.55 161.531 154.55 160.839 154.55 160.303 154.012 160.303 153.322L160.303 142.648C160.303 138.961 157.885 136.237 154.544 136.237 151.087 136.237 148.401 139.078 148.401 142.648L148.401 142.84C148.401 142.878 148.401 142.916 148.401 142.954L148.401 153.322C148.401 154.012 147.863 154.55 147.173 154.55 146.521 154.55 145.983 154.012 145.983 153.322L145.983 135.007C145.983 134.355 146.521 133.816 147.173 133.816 147.863 133.816 148.401 134.355 148.401 135.007L148.401 136.389C149.976 134.777 152.126 133.816 154.544 133.816 156.887 133.816 159.037 134.739 160.533 136.464 161.953 138.077 162.721 140.268 162.721 142.648Z" fill="#343434" transform="matrix(1 0 0 1.00329 65 150.522)"/><path d="M185.908 128.671 185.908 153.322C185.908 154.012 185.37 154.55 184.718 154.55 184.028 154.55 183.49 154.012 183.49 153.322L183.49 151.172C181.724 153.284 179.113 154.55 176.119 154.55 170.514 154.55 166.289 150.098 166.289 144.185 166.289 138.272 170.511 133.819 176.119 133.819 179.113 133.819 181.724 135.085 183.49 137.16L183.49 128.674C183.49 127.985 184.028 127.446 184.718 127.446 185.373 127.443 185.908 127.982 185.908 128.671ZM183.49 144.182C183.49 139.651 180.304 136.235 176.119 136.235 171.934 136.235 168.748 139.651 168.748 144.182 168.748 148.675 171.934 152.091 176.119 152.091 180.304 152.091 183.49 148.675 183.49 144.182Z" fill="#343434" transform="matrix(1 0 0 1.00329 65 150.522)"/><path d="M209.214 129.824 209.214 152.324C209.214 153.552 208.216 154.55 206.988 154.55 205.915 154.55 205.03 153.82 204.8 152.822 203.188 153.936 201.229 154.55 199.155 154.55 196.314 154.55 193.739 153.436 191.859 151.364 190.055 149.443 189.095 146.795 189.095 143.993 189.095 141.152 190.055 138.501 191.859 136.581 193.742 134.509 196.314 133.394 199.155 133.394 201.189 133.394 203.109 133.971 204.759 135.085L204.759 129.824C204.759 128.596 205.757 127.598 206.985 127.598 208.213 127.598 209.214 128.593 209.214 129.824ZM204.759 143.99C204.759 140.419 202.379 137.847 199.155 137.847 195.89 137.847 193.55 140.419 193.55 143.99 193.55 147.522 195.892 150.095 199.155 150.095 202.379 150.095 204.759 147.522 204.759 143.99Z" fill="#343434" transform="matrix(1 0 0 1.00329 65 150.522)"/><path d="M222.074 154.742C219.234 154.742 216.658 153.514 214.778 151.439 212.974 149.519 212.014 146.871 212.014 144.068 212.014 138.004 216.274 133.473 221.882 133.473 227.527 133.473 231.633 137.925 231.633 144.068 231.633 145.296 230.635 146.294 229.369 146.294L216.815 146.294C217.584 148.637 219.58 150.287 222.077 150.287 224.035 150.287 225.609 149.749 226.491 148.136 227.143 147.063 228.525 146.754 229.564 147.368 230.638 148.02 230.946 149.402 230.332 150.441 228.601 153.552 225.606 154.742 222.074 154.742ZM216.775 141.801 226.872 141.801C226.104 139.153 223.994 137.922 221.882 137.922 219.807 137.925 217.581 139.153 216.775 141.801Z" fill="#343434" transform="matrix(1 0 0 1.00329 65 150.522)"/><path d="M236.854 154.55C235.626 154.55 234.628 153.552 234.628 152.324L234.628 129.824C234.628 128.596 235.626 127.598 236.854 127.598 238.082 127.598 239.118 128.596 239.118 129.824L239.118 152.324C239.118 153.552 238.082 154.55 236.854 154.55Z" fill="#343434" transform="matrix(1 0 0 1.00329 65 150.522)"/><path d="M254.168 152.592C253.094 153.82 251.52 154.55 249.867 154.55 246.756 154.55 244.222 152.016 244.222 148.905L244.222 137.847C243.069 137.809 242.109 136.811 242.109 135.621 242.109 134.43 243.069 133.432 244.222 133.394L244.222 130.938C244.222 129.71 245.22 128.712 246.486 128.712 247.714 128.712 248.712 129.71 248.712 130.938L248.712 133.394 251.552 133.394C252.78 133.394 253.778 134.393 253.778 135.621 253.778 136.849 252.78 137.847 251.552 137.847L248.712 137.847 248.712 148.905C248.712 149.557 249.21 150.095 249.864 150.095 250.324 150.095 250.632 149.827 250.746 149.673 251.552 148.75 252.972 148.637 253.895 149.443 254.858 150.211 254.974 151.631 254.168 152.592Z" fill="#343434" transform="matrix(1 0 0 1.00329 65 150.522)"/><path d="M275.708 135.621 275.708 152.324C275.708 153.552 274.71 154.55 273.482 154.55 272.408 154.55 271.523 153.82 271.293 152.822 269.681 153.936 267.723 154.55 265.648 154.55 262.808 154.55 260.233 153.436 258.353 151.364 256.586 149.443 255.588 146.795 255.588 143.993 255.588 141.152 256.586 138.501 258.353 136.581 260.236 134.509 262.808 133.394 265.648 133.394 267.72 133.394 269.678 134.008 271.293 135.123 271.523 134.125 272.408 133.394 273.482 133.394 274.71 133.394 275.708 134.393 275.708 135.621ZM271.253 143.99C271.253 140.419 268.872 137.847 265.648 137.847 262.383 137.847 260.043 140.419 260.043 143.99 260.043 147.522 262.386 150.095 265.648 150.095 268.872 150.095 271.253 147.522 271.253 143.99Z" fill="#343434" transform="matrix(1 0 0 1.00329 65 150.522)"/></g></svg>